<svg width="208" height="14" viewBox="0 0 208 14" fill="none" xmlns="http://www.w3.org/2000/svg">
<g id="MONTESSORI">
<path d="M0.10498 13.6653V0.884422H1.09794L6.30689 10.8535H5.78599L10.9461 0.884422H11.9391V13.6653H10.7833V2.91111H11.0601L6.30689 12.0403H5.73716L0.951435 2.91111H1.26072V13.6653H0.10498Z" fill="black"/>
<path d="M31.4847 13.7749C30.6274 13.7749 29.8298 13.6166 29.0919 13.3002C28.3648 12.9715 27.73 12.515 27.1874 11.9308C26.6556 11.3343 26.2378 10.6466 25.934 9.86757C25.641 9.07637 25.4944 8.21214 25.4944 7.27487C25.4944 6.33761 25.641 5.47946 25.934 4.70043C26.2378 3.90924 26.6556 3.2215 27.1874 2.63723C27.73 2.04079 28.3648 1.58433 29.0919 1.26785C29.819 0.939198 30.6166 0.774872 31.4847 0.774872C32.342 0.774872 33.1342 0.939198 33.8613 1.26785C34.5884 1.58433 35.2178 2.0347 35.7496 2.61897C36.2922 3.20324 36.71 3.89098 37.003 4.68218C37.3068 5.47337 37.4588 6.33761 37.4588 7.27487C37.4588 8.21214 37.3068 9.07637 37.003 9.86757C36.71 10.6588 36.2922 11.3465 35.7496 11.9308C35.2178 12.515 34.5884 12.9715 33.8613 13.3002C33.1342 13.6166 32.342 13.7749 31.4847 13.7749ZM31.4847 12.5698C32.1684 12.5698 32.7978 12.442 33.373 12.1864C33.959 11.9186 34.4636 11.5473 34.8868 11.0726C35.3209 10.5857 35.6573 10.0258 35.8961 9.39285C36.1348 8.74772 36.2542 8.04173 36.2542 7.27487C36.2542 6.50802 36.1348 5.80811 35.8961 5.17515C35.6573 4.53002 35.3209 3.9701 34.8868 3.49538C34.4636 3.00849 33.959 2.63723 33.373 2.38161C32.7978 2.11382 32.1684 1.97993 31.4847 1.97993C30.8011 1.97993 30.1662 2.11382 29.5802 2.38161C28.9942 2.63723 28.4842 3.00849 28.0501 3.49538C27.6269 3.9701 27.2905 4.53002 27.0409 5.17515C26.8021 5.80811 26.6827 6.50802 26.6827 7.27487C26.6827 8.02955 26.8021 8.72946 27.0409 9.37459C27.2905 10.0197 27.6269 10.5857 28.0501 11.0726C28.4842 11.5473 28.9942 11.9186 29.5802 12.1864C30.1662 12.442 30.8011 12.5698 31.4847 12.5698Z" fill="black"/>
<path d="M51.0107 13.6653V0.884422H52.0037L59.8659 11.9855H59.345V0.884422H60.5333V13.6653H59.5404L51.6944 2.5642H52.2153V13.6653H51.0107Z" fill="black"/>
<path d="M77.3182 13.6653V2.05296H73.3139V0.884422H82.5272V2.05296H78.5228V13.6653H77.3182Z" fill="black"/>
<path d="M96.3779 6.59931H102.401V7.74959H96.3779V6.59931ZM96.5081 12.4968H103.361V13.6653H95.3035V0.884422H103.117V2.05296H96.5081V12.4968Z" fill="black"/>
<path d="M120.186 13.7749C119.34 13.7749 118.526 13.6227 117.745 13.3184C116.974 13.0019 116.377 12.6002 115.954 12.1134L116.426 11.0726C116.828 11.5108 117.365 11.8821 118.037 12.1864C118.721 12.4785 119.437 12.6246 120.186 12.6246C120.902 12.6246 121.483 12.5272 121.928 12.3325C122.384 12.1255 122.715 11.8517 122.921 11.5108C123.138 11.17 123.246 10.7927 123.246 10.3788C123.246 9.87974 123.116 9.47806 122.856 9.17375C122.606 8.86944 122.275 8.63208 121.863 8.46167C121.45 8.27909 120.995 8.12085 120.495 7.98695C119.996 7.85306 119.497 7.71307 118.998 7.56701C118.499 7.40877 118.038 7.20184 117.614 6.94622C117.202 6.6906 116.865 6.35586 116.605 5.94201C116.355 5.51598 116.231 4.96214 116.231 4.28049C116.231 3.64753 116.377 3.06935 116.67 2.54594C116.974 2.01036 117.435 1.58433 118.054 1.26785C118.672 0.939198 119.465 0.774872 120.43 0.774872C121.071 0.774872 121.705 0.878336 122.335 1.08527C122.964 1.28002 123.507 1.5539 123.963 1.90689L123.556 2.98414C123.067 2.61897 122.547 2.35118 121.993 2.18077C121.45 2.01036 120.924 1.92515 120.414 1.92515C119.73 1.92515 119.166 2.02862 118.721 2.23555C118.276 2.44247 117.945 2.72244 117.728 3.07543C117.522 3.41626 117.419 3.80577 117.419 4.24397C117.419 4.74304 117.544 5.14472 117.793 5.44903C118.054 5.75334 118.39 5.9907 118.803 6.16111C119.226 6.33152 119.687 6.48367 120.186 6.61757C120.685 6.75146 121.179 6.89753 121.668 7.05577C122.167 7.21401 122.622 7.42094 123.035 7.67656C123.458 7.92 123.794 8.24865 124.044 8.66251C124.305 9.07637 124.435 9.61804 124.435 10.2875C124.435 10.9083 124.283 11.4865 123.979 12.0221C123.675 12.5455 123.208 12.9715 122.579 13.3002C121.961 13.6166 121.163 13.7749 120.186 13.7749Z" fill="black"/>
<path d="M141.053 13.7749C140.206 13.7749 139.393 13.6227 138.611 13.3184C137.841 13.0019 137.244 12.6002 136.821 12.1134L137.293 11.0726C137.694 11.5108 138.231 11.8821 138.904 12.1864C139.588 12.4785 140.304 12.6246 141.053 12.6246C141.769 12.6246 142.35 12.5272 142.795 12.3325C143.25 12.1255 143.581 11.8517 143.788 11.5108C144.005 11.17 144.113 10.7927 144.113 10.3788C144.113 9.87974 143.983 9.47806 143.723 9.17375C143.473 8.86944 143.142 8.63208 142.73 8.46167C142.317 8.27909 141.861 8.12085 141.362 7.98695C140.863 7.85306 140.364 7.71307 139.865 7.56701C139.365 7.40877 138.904 7.20184 138.481 6.94622C138.069 6.6906 137.732 6.35586 137.472 5.94201C137.222 5.51598 137.097 4.96214 137.097 4.28049C137.097 3.64753 137.244 3.06935 137.537 2.54594C137.841 2.01036 138.302 1.58433 138.921 1.26785C139.539 0.939198 140.331 0.774872 141.297 0.774872C141.937 0.774872 142.572 0.878336 143.202 1.08527C143.831 1.28002 144.374 1.5539 144.829 1.90689L144.422 2.98414C143.934 2.61897 143.413 2.35118 142.86 2.18077C142.317 2.01036 141.791 1.92515 141.281 1.92515C140.597 1.92515 140.033 2.02862 139.588 2.23555C139.143 2.44247 138.812 2.72244 138.595 3.07543C138.389 3.41626 138.286 3.80577 138.286 4.24397C138.286 4.74304 138.41 5.14472 138.66 5.44903C138.921 5.75334 139.257 5.9907 139.669 6.16111C140.093 6.33152 140.554 6.48367 141.053 6.61757C141.552 6.75146 142.046 6.89753 142.534 7.05577C143.033 7.21401 143.489 7.42094 143.902 7.67656C144.325 7.92 144.661 8.24865 144.911 8.66251C145.171 9.07637 145.301 9.61804 145.301 10.2875C145.301 10.9083 145.15 11.4865 144.846 12.0221C144.542 12.5455 144.075 12.9715 143.446 13.3002C142.827 13.6166 142.03 13.7749 141.053 13.7749Z" fill="black"/>
<path d="M163.759 13.7749C162.902 13.7749 162.104 13.6166 161.366 13.3002C160.639 12.9715 160.004 12.515 159.462 11.9308C158.93 11.3343 158.512 10.6466 158.208 9.86757C157.915 9.07637 157.769 8.21214 157.769 7.27487C157.769 6.33761 157.915 5.47946 158.208 4.70043C158.512 3.90924 158.93 3.2215 159.462 2.63723C160.004 2.04079 160.639 1.58433 161.366 1.26785C162.093 0.939198 162.891 0.774872 163.759 0.774872C164.616 0.774872 165.409 0.939198 166.136 1.26785C166.863 1.58433 167.492 2.0347 168.024 2.61897C168.566 3.20324 168.984 3.89098 169.277 4.68218C169.581 5.47337 169.733 6.33761 169.733 7.27487C169.733 8.21214 169.581 9.07637 169.277 9.86757C168.984 10.6588 168.566 11.3465 168.024 11.9308C167.492 12.515 166.863 12.9715 166.136 13.3002C165.409 13.6166 164.616 13.7749 163.759 13.7749ZM163.759 12.5698C164.443 12.5698 165.072 12.442 165.647 12.1864C166.233 11.9186 166.738 11.5473 167.161 11.0726C167.595 10.5857 167.932 10.0258 168.17 9.39285C168.409 8.74772 168.529 8.04173 168.529 7.27487C168.529 6.50802 168.409 5.80811 168.17 5.17515C167.932 4.53002 167.595 3.9701 167.161 3.49538C166.738 3.00849 166.233 2.63723 165.647 2.38161C165.072 2.11382 164.443 1.97993 163.759 1.97993C163.075 1.97993 162.441 2.11382 161.855 2.38161C161.269 2.63723 160.759 3.00849 160.324 3.49538C159.901 3.9701 159.565 4.53002 159.315 5.17515C159.076 5.80811 158.957 6.50802 158.957 7.27487C158.957 8.02955 159.076 8.72946 159.315 9.37459C159.565 10.0197 159.901 10.5857 160.324 11.0726C160.759 11.5473 161.269 11.9186 161.855 12.1864C162.441 12.442 163.075 12.5698 163.759 12.5698Z" fill="black"/>
<path d="M183.285 13.6653V0.884422H187.55C188.516 0.884422 189.346 1.06092 190.04 1.41392C190.735 1.75474 191.267 2.2538 191.636 2.91111C192.015 3.55624 192.205 4.34135 192.205 5.26645C192.205 6.16719 192.015 6.94622 191.636 7.60352C191.267 8.24865 190.735 8.74772 190.04 9.10071C189.346 9.44154 188.516 9.61195 187.55 9.61195H183.952L184.49 8.99117V13.6653H183.285ZM191.066 13.6653L188.136 9.02768H189.438L192.384 13.6653H191.066ZM184.49 9.10071L183.952 8.46167H187.517C188.657 8.46167 189.52 8.18171 190.106 7.62178C190.702 7.06186 191.001 6.27675 191.001 5.26645C191.001 4.24397 190.702 3.45277 190.106 2.89285C189.52 2.33292 188.657 2.05296 187.517 2.05296H183.952L184.49 1.41392V9.10071Z" fill="black"/>
<path d="M205.9 13.6653V0.884422H207.105V13.6653H205.9Z" fill="black"/>
</g>
</svg>
